<?xml version="1.0" encoding="UTF-8" standalone="no"?>
<svg
  width="338.66666mm"
  height="338.66666mm"
  viewBox="0 0 338.66666 338.66666"
  version="1.1"
  id="svg1"
  xml:space="preserve"
  xmlns="http://www.w3.org/2000/svg"
  xmlns:svg="http://www.w3.org/2000/svg">
  <defs
     id="defs1" />
<style>
  #paw-left {
    animation: pulseLeft 2s infinite ease-in-out;
    transform-origin: center;
  }

  #paw-right {
    animation: pulseRight 2s infinite ease-in-out;
    transform-origin: center;
    animation-delay: 1s;
  }

  @keyframes pulseLeft {
    0%   { transform: scale(1); opacity: 1; }
    50%  { transform: scale(1.2); opacity: 0.6; }
    100% { transform: scale(1); opacity: 1; }
  }

  @keyframes pulseRight {
    0%   { transform: scale(1); opacity: 1; }
    50%  { transform: scale(1.2); opacity: 0.6; }
    100% { transform: scale(1); opacity: 1; }
  }
</style>

     <g id="layer1" transform="translate(90.222908,42.333328)">
     <path/>
       <g id="g1">
       <path
         style="fill:#f5961b"
         d="M 71.569795,204.89481 C 35.082723,203.31209 2.3510312,192.83842 -27.51666,173.18857 c -6.895928,-4.5368 -17.769277,-12.97804 -21.852853,-16.96489 -1.261386,-1.23151 -1.43048,-1.52213 -1.43048,-2.45864 0,-0.83221 0.150868,-1.18072 0.69714,-1.61042 1.17731,-0.92607 2.058994,-0.70828 5.917444,1.4617 14.385729,8.0905 31.330698,15.43481 46.8312482,20.29764 37.7495068,11.84279 76.4635078,15.1849 113.7708308,9.82162 20.59371,-2.96054 40.97501,-8.42998 60.002,-16.10189 2.2877,-0.92243 4.53645,-1.75808 4.99721,-1.85699 1.88785,-0.40529 4.33762,1.02877 4.71831,2.76202 0.49411,2.24967 -0.617,3.47292 -7.01127,7.71889 -7.12835,4.73342 -14.2056,8.62154 -21.82813,11.99201 -19.94569,8.81942 -41.42357,14.24439 -63.868898,16.13227 -4.724678,0.3974 -17.569843,0.69884 -21.856097,0.51292 z M 188.96155,194.29764 c -0.19131,-0.0819 -0.45749,-0.4374 -0.59152,-0.78992 -0.27167,-0.71454 -0.26542,-0.73544 1.84739,-6.18272 5.54309,-14.29127 7.68992,-23.59856 6.24237,-27.06304 -1.19374,-2.85701 -5.40183,-3.80802 -15.69076,-3.54601 -5.80211,0.14774 -8.75001,0.37673 -16.24204,1.26165 -2.55493,0.30177 -2.88668,0.29092 -3.50573,-0.1147 -1.71902,-1.12635 0.0387,-3.33944 4.48026,-5.64081 4.77331,-2.47328 8.96806,-3.87191 14.75373,-4.91923 2.82139,-0.51073 4.16022,-0.58568 10.50933,-0.58835 7.89043,-0.003 10.11944,0.2461 14.03323,1.57023 3.87629,1.31144 4.0973,1.72157 4.07119,7.55484 -0.0165,3.68051 -0.13247,4.90541 -0.73911,7.80521 -2.15088,10.28154 -7.07131,20.43676 -12.9515,26.73045 -3.07793,3.29438 -4.94004,4.46924 -6.21684,3.9224 z"
         id="path2" />
         <g
         id="g4">
         <path
           style="fill:#0b0b0b"
           d="m 103.1221,152.91933 c -3.615201,-0.60637 -6.020014,-4.01922 -6.020014,-8.54346 0,-7.90528 5.899174,-15.04556 14.287504,-17.29339 2.60595,-0.69832 7.69859,-0.62771 10.43607,0.14471 6.50937,1.8367 11.54864,6.62368 11.97994,11.38014 0.44279,4.88314 -2.94604,7.70262 -9.26602,7.70925 -4.66165,0.005 -7.9291,1.08763 -13.94374,4.62053 -3.24357,1.90522 -5.06022,2.38704 -7.47374,1.98222 z M 82.654858,138.53102 c -4.212889,-1.31858 -7.804757,-6.68456 -7.448162,-11.12699 0.288747,-3.59718 2.209696,-5.52287 5.520499,-5.53412 4.766162,-0.0162 9.397715,4.83577 9.706412,10.16832 0.138975,2.40072 -0.19701,3.62227 -1.360905,4.94787 -1.544238,1.75879 -3.912816,2.32896 -6.417844,1.54492 z m 11.162203,-14.8583 c -3.811127,-1.39624 -6.776451,-5.87974 -6.76333,-10.22601 0.01954,-6.47234 6.30258,-9.11122 11.518004,-4.83758 2.359325,1.93329 4.098045,5.58513 4.074985,8.55871 -0.0389,5.02054 -4.304224,8.16282 -8.829659,6.50488 z m 34.627909,-4.31348 c -1.41419,-0.64239 -3.13737,-2.6401 -3.87396,-4.49115 -0.82953,-2.08464 -0.84178,-5.71084 -0.0254,-7.50899 1.31358,-2.89315 3.20222,-4.39008 5.82769,-4.61901 1.31595,-0.11475 1.71798,-0.0291 2.97641,0.6341 2.82934,1.49106 4.38287,4.74764 4.18098,8.76435 -0.17329,3.44783 -1.56567,5.98942 -3.9467,7.20413 -1.30599,0.66627 -3.69183,0.67396 -5.13906,0.0166 z m -18.00508,-2.52541 c -1.81126,-0.78859 -3.75024,-3.52679 -4.51095,-6.37029 -1.10487,-4.13 0.52901,-9.56204 3.29172,-10.943718 3.44132,-1.721069 6.65066,-0.300056 8.70356,3.853718 0.8972,1.81536 0.99992,2.24525 1.09357,4.57666 0.16452,4.0961 -1.14621,7.3123 -3.52716,8.65478 -1.23295,0.69519 -3.72072,0.80791 -5.05074,0.22885 z"
           id="paw-right">
           </path>
           <path
           style="fill:#0b0b0b"
           d="m 43.308322,97.112137 c -2.897645,-0.926216 -4.463914,-4.571697 -3.856887,-8.976873 0.829532,-6.01988 5.824765,-12.253777 12.011328,-14.989769 1.788034,-0.790753 4.957768,-1.44341 7.010158,-1.44341 6.591145,0 14.535152,4.450798 16.881388,9.458154 0.938554,2.003069 0.987059,4.905047 0.110144,6.589691 -1.441991,2.770213 -3.917751,3.729617 -10.509241,4.072529 -2.473854,0.128698 -5.212291,0.419843 -6.085416,0.646989 -1.674995,0.435753 -4.508337,1.752047 -7.802367,3.624768 -1.90735,1.084367 -2.075739,1.128965 -4.497916,1.191268 -1.384011,0.0356 -2.851547,-0.04241 -3.261191,-0.173347 z M 28.17813,80.20025 c -6.066957,-1.599557 -9.60954,-10.084776 -6.205987,-14.864625 0.303614,-0.426387 1.098324,-1.095401 1.766022,-1.486698 3.547793,-2.079145 8.954224,0.492424 11.366302,5.406381 0.668919,1.362742 0.746477,1.797774 0.746526,4.187317 5e-5,2.5064 -0.04805,2.744383 -0.800691,3.961756 -1.4087,2.278519 -4.328652,3.46647 -6.872172,2.795869 z M 76.434179,69.500769 c -1.473985,-0.551081 -2.481269,-1.378463 -3.356022,-2.756632 -1.154403,-1.818758 -1.446084,-3.082213 -1.333829,-5.777657 0.15873,-3.811371 1.742757,-6.537077 4.61589,-7.94277 1.235487,-0.604467 1.676522,-0.687103 3.017955,-0.565466 1.903925,0.172642 3.121555,0.871563 4.372423,2.509774 1.16649,1.527706 1.709824,3.356121 1.709824,5.753859 0,2.406206 -0.522754,4.151934 -1.783798,5.956957 -1.788767,2.560392 -4.80185,3.734405 -7.242443,2.821935 z M 41.142713,67.372783 c -3.457719,-1.620412 -5.700415,-5.755888 -5.677538,-10.469241 0.04549,-9.372291 9.1707,-11.317283 13.204938,-2.814565 3.678087,7.752079 -1.150068,16.272453 -7.5274,13.283806 z M 58.869796,63.53413 c -1.221163,-0.557793 -3.034136,-2.430196 -3.792615,-3.916937 -0.75816,-1.486118 -1.200482,-4.085977 -1.021411,-6.003606 0.449649,-4.815188 3.42195,-8.126643 6.966009,-7.760864 5.292554,0.54624 8.439235,7.45355 6.164822,13.532463 -0.628404,1.67956 -2.392919,3.778901 -3.600172,4.283323 -1.20803,0.504748 -3.457731,0.440652 -4.716633,-0.134379 z"
           id="paw-left">
          </path>
          </g>
        </g>
      </g>
    </svg>